<svg xmlns="http://www.w3.org/2000/svg" viewBox="0 0 296 296" fill="white"><defs/><path d="M148 0C66.4 0 0 66.4 0 148s66.4 148 148 148 148-66.4 148-148S229.6 0 148 0zm0 280c-36.26 0-69.15-14.7-93.03-38.44a132.71 132.71 0 01-23.93-32.42A131.18 131.18 0 0116 148C16 75.2 75.21 16 148 16a131.5 131.5 0 0189.53 35.1 132.7 132.7 0 0129.56 40 131.2 131.2 0 0112.9 56.9c0 72.78-59.2 132-132 132z"/><circle cx="98.67" cy="115" r="16"/><circle cx="197.67" cy="115" r="16"/><path d="M214.25 202.73a76.1 76.1 0 013.36 6.72l14.65-6.43a92.11 92.11 0 00-4.08-8.15c-17.02-30.19-50.4-48.55-85.01-46.75-34.38 1.78-65.56 23.33-79.44 54.9l14.65 6.43c11.46-26.08 37.22-43.88 65.62-45.35a76.7 76.7 0 0170.25 38.63zM105.05 60.14l25.93 18.75-9.37 12.97L95.67 73.1zM190.94 60.14l9.37 12.97-25.93 18.75L165 78.89z"/></svg>