<svg xmlns="http://www.w3.org/2000/svg" viewBox="0 0 296 296"><defs/><path d="M148 0C66.4 0 0 66.4 0 148s66.4 148 148 148 148-66.4 148-148S229.6 0 148 0zm0 280c-36.26 0-69.15-14.7-93.03-38.44a132.71 132.71 0 01-23.93-32.42A131.18 131.18 0 0116 148C16 75.2 75.21 16 148 16a131.5 131.5 0 0189.53 35.1 132.7 132.7 0 0129.56 40 131.2 131.2 0 0112.9 56.9c0 72.78-59.2 132-132 132z"/><path d="M97.41 114.4c8.6 0 15.6 6.6 15.6 15.6h16c0-18-14.18-31.6-31.6-31.6S65.81 112 65.81 130h16c0-9 7-15.6 15.6-15.6zM198.58 114.4c8.6 0 15.6 6.6 15.6 15.6h16c0-18-14.17-31.6-31.6-31.6-17.42 0-31.6 13.6-31.6 31.6h16c0-9 7-15.6 15.6-15.6zM147.72 230c30.95 0 60.61-15.83 77.6-42.12l-13.44-8.68a76.68 76.68 0 01-72.7 34.3 76.75 76.75 0 01-55.06-34.3l-13.44 8.68c14.79 22.9 39.71 38.41 66.67 41.52 3.46.4 6.92.6 10.37.6z"/></svg>