<svg xmlns="http://www.w3.org/2000/svg" viewBox="0 0 296 296" fill="white"><defs/><path d="M148 0C66.4 0 0 66.4 0 148s66.4 148 148 148 148-66.4 148-148S229.6 0 148 0zm0 280c-36.26 0-69.15-14.7-93.02-38.44a132.71 132.71 0 01-23.94-32.42A131.17 131.17 0 0116 148C16 75.2 75.21 16 148 16a131.5 131.5 0 0189.53 35.1 132.7 132.7 0 0129.56 40 131.2 131.2 0 0112.9 56.9c0 72.78-59.2 132-132 132z"/><circle cx="99.67" cy="115" r="16"/><circle cx="198.67" cy="115" r="16"/><path d="M147.72 230c30.95 0 60.61-15.83 77.6-42.12l-13.44-8.68a76.67 76.67 0 01-72.7 34.3 76.75 76.75 0 01-55.06-34.3l-13.44 8.68c14.79 22.9 39.71 38.41 66.67 41.52 3.46.4 6.92.6 10.37.6z"/></svg>