<svg xmlns="http://www.w3.org/2000/svg" viewBox="0 0 296 296" fill="white"><defs/><path d="M148 0C66.4 0 0 66.4 0 148s66.4 148 148 148 148-66.4 148-148S229.6 0 148 0zm0 280c-36.26 0-69.15-14.7-93.03-38.44a132.71 132.71 0 01-23.93-32.42A131.18 131.18 0 0116 148C16 75.2 75.21 16 148 16a131.5 131.5 0 0189.53 35.1 132.69 132.69 0 0129.56 40 131.2 131.2 0 0112.9 56.9c0 72.78-59.2 132-132 132z"/><path d="M176.25 182a55.12 55.12 0 0137.08 8.1l8.58-13.51a71.15 71.15 0 00-47.86-10.45 71.62 71.62 0 00-57.84 48.33l15.2 4.99a55.51 55.51 0 0144.84-37.47z"/><circle cx="98.67" cy="116" r="16"/><circle cx="197.66" cy="116" r="16"/></svg>