<svg xmlns="http://www.w3.org/2000/svg" viewBox="0 0 512 512">
<defs/>
<path fill="#D8D8D8" d="M334.01 315.36V62.16a62.16 62.16 0 00-124.32 0v253.2a108 108 0 00-45.98 88.5c0 59.72 48.42 108.14 108.14 108.14S380 463.58 380 403.86c0-36.6-18.18-68.94-45.99-88.5z"/>
<path fill="#F3E8D7" d="M271.85 476.58c-41.18 0-74.69-33.5-74.69-74.69a74.65 74.65 0 0148.6-69.98V62.16c0-14.4 11.7-26.1 26.1-26.1 14.38 0 26.09 11.7 26.09 26.1v269.75a74.65 74.65 0 0148.59 69.98c0 41.18-33.5 74.7-74.69 74.7z"/>
<path className="fillPath" fill="#FC4E51" d="M245.76 109.87v222.04a74.64 74.64 0 00-48.6 69.98c0 41.18 33.5 74.69 74.7 74.69s74.68-33.5 74.68-74.69a74.65 74.65 0 00-48.6-69.98V109.87h-52.18z" opacity=".8"/>
<path className="fillPath" fill="#FC4E51" d="M297.94 331.91V109.87h-52.18v222.04s36.07 16.74 36.07 69.98c0 29.6-17.3 55.23-42.33 67.31a74.23 74.23 0 0032.35 7.38c41.18 0 74.69-33.5 74.69-74.69a74.65 74.65 0 00-48.6-69.98z"/>
</svg>