<svg xmlns="http://www.w3.org/2000/svg" viewBox="0 0 512 512">
	<path d="M472.058 180.248c11.033-15.738 16.98-34.445 16.98-54.033 0-52.044-42.342-94.384-94.388-94.384a94.534 94.534 0 00-48.376 13.348C318.972 16.305 281.398 0 241.172 0 161.272 0 96.27 65.002 96.27 144.903c0 13.074 1.742 25.955 5.19 38.455-33.834 17.453-55.706 52.572-55.706 91.447 0 56.742 46.161 102.904 102.902 102.904 13.567 0 27.001-2.697 39.46-7.871 19.331 20.57 46.568 32.549 75.06 32.549 17.985 0 35.361-4.613 50.811-13.422 20.044 11.643 42.695 17.752 66.098 17.752 72.738 0 131.915-59.176 131.915-131.912 0-36.115-14.39-69.81-39.942-94.557z"/>
	<circle cx="15.001" cy="497" r="15"/>
	<circle cx="119.431" cy="456.83" r="15"/>
</svg>