{
    "asset" : {
        "generator" : "Khronos glTF Blender I/O v0.9.36",
        "version" : "2.0"
    },
    "scene" : 0,
    "scenes" : [
        {
            "name" : "Scene",
            "nodes" : [
                0,
                1,
                2,
                3,
                4,
                5,
                6,
                7
            ]
        }
    ],
    "nodes" : [
        {
            "mesh" : 0,
            "name" : "stackLeaves",
            "rotation" : [
                0.7111825942993164,
                0.005665160715579987,
                -0.013955805450677872,
                0.7028460502624512
            ]
        },
        {
            "mesh" : 1,
            "name" : "stackTrunk",
            "rotation" : [
                0.7111825942993164,
                0.005665160715579987,
                -0.013955805450677872,
                0.7028460502624512
            ]
        },
        {
            "mesh" : 2,
            "name" : "normieLeaves",
            "rotation" : [
                0.7111830115318298,
                0,
                0,
                0.7028459906578064
            ]
        },
        {
            "mesh" : 3,
            "name" : "normieTrunk",
            "rotation" : [
                0.7111830115318298,
                0,
                0,
                0.7028459906578064
            ]
        },
        {
            "mesh" : 4,
            "name" : "roseLeaves",
            "rotation" : [
                0.7111825942993164,
                0.005665160715579987,
                -0.013955805450677872,
                0.7028459906578064
            ]
        },
        {
            "mesh" : 5,
            "name" : "roseTrunk",
            "rotation" : [
                0.7111830115318298,
                0.005665160715579987,
                -0.013955805450677872,
                0.7028459906578064
            ]
        },
        {
            "mesh" : 6,
            "name" : "plateLeaves",
            "rotation" : [
                0.7111830115318298,
                0,
                0,
                0.7028459906578064
            ]
        },
        {
            "mesh" : 7,
            "name" : "plateTrunk",
            "rotation" : [
                0.7111830115318298,
                0,
                0,
                0.7028459906578064
            ]
        }
    ],
    "materials" : [
        {
            "doubleSided" : true,
            "emissiveFactor" : [
                0,
                0,
                0
            ],
            "name" : "Material.002",
            "pbrMetallicRoughness" : {
                "baseColorFactor" : [
                    0.13370588421821594,
                    0.28069689869880676,
                    0.08395107090473175,
                    1
                ],
                "metallicFactor" : 0,
                "roughnessFactor" : 0.6000000238418579
            }
        },
        {
            "doubleSided" : true,
            "emissiveFactor" : [
                0,
                0,
                0
            ],
            "name" : "Material.001",
            "pbrMetallicRoughness" : {
                "baseColorFactor" : [
                    0.15426279604434967,
                    0.03292083740234375,
                    0.03292083740234375,
                    1
                ],
                "metallicFactor" : 0,
                "roughnessFactor" : 0.6000000238418579
            }
        }
    ],
    "meshes" : [
        {
            "name" : "Plane.007",
            "primitives" : [
                {
                    "attributes" : {
                        "POSITION" : 0,
                        "NORMAL" : 1
                    },
                    "indices" : 2,
                    "material" : 0
                }
            ]
        },
        {
            "name" : "Plane.000",
            "primitives" : [
                {
                    "attributes" : {
                        "POSITION" : 3,
                        "NORMAL" : 4
                    },
                    "indices" : 5,
                    "material" : 1
                }
            ]
        },
        {
            "name" : "Icosphere.003",
            "primitives" : [
                {
                    "attributes" : {
                        "POSITION" : 6,
                        "NORMAL" : 7
                    },
                    "indices" : 8,
                    "material" : 0
                }
            ]
        },
        {
            "name" : "Icosphere.000",
            "primitives" : [
                {
                    "attributes" : {
                        "POSITION" : 9,
                        "NORMAL" : 10
                    },
                    "indices" : 11,
                    "material" : 1
                }
            ]
        },
        {
            "name" : "Cylinder.000",
            "primitives" : [
                {
                    "attributes" : {
                        "POSITION" : 12,
                        "NORMAL" : 13
                    },
                    "indices" : 14,
                    "material" : 0
                }
            ]
        },
        {
            "name" : "Cylinder.001",
            "primitives" : [
                {
                    "attributes" : {
                        "POSITION" : 15,
                        "NORMAL" : 16
                    },
                    "indices" : 17,
                    "material" : 1
                }
            ]
        },
        {
            "name" : "Cylinder.003",
            "primitives" : [
                {
                    "attributes" : {
                        "POSITION" : 18,
                        "NORMAL" : 19
                    },
                    "indices" : 20,
                    "material" : 0
                }
            ]
        },
        {
            "name" : "Cylinder.004",
            "primitives" : [
                {
                    "attributes" : {
                        "POSITION" : 21,
                        "NORMAL" : 22
                    },
                    "indices" : 23,
                    "material" : 1
                }
            ]
        }
    ],
    "accessors" : [
        {
            "bufferView" : 0,
            "componentType" : 5126,
            "count" : 1282,
            "max" : [
                3.4207990169525146,
                3.745936393737793,
                -5.987549304962158
            ],
            "min" : [
                -3.8480050563812256,
                -3.6586079597473145,
                -12.125370025634766
            ],
            "type" : "VEC3"
        },
        {
            "bufferView" : 1,
            "componentType" : 5126,
            "count" : 1282,
            "type" : "VEC3"
        },
        {
            "bufferView" : 2,
            "componentType" : 5123,
            "count" : 1620,
            "type" : "SCALAR"
        },
        {
            "bufferView" : 3,
            "componentType" : 5126,
            "count" : 392,
            "max" : [
                1.7360780239105225,
                2.0089406967163086,
                -0.11507943272590637
            ],
            "min" : [
                -1.7409942150115967,
                -1.7186990976333618,
                -8.228774070739746
            ],
            "type" : "VEC3"
        },
        {
            "bufferView" : 4,
            "componentType" : 5126,
            "count" : 392,
            "type" : "VEC3"
        },
        {
            "bufferView" : 5,
            "componentType" : 5123,
            "count" : 450,
            "type" : "SCALAR"
        },
        {
            "bufferView" : 6,
            "componentType" : 5126,
            "count" : 480,
            "max" : [
                5.8141279220581055,
                5.720858097076416,
                -7.154873371124268
            ],
            "min" : [
                -5.317358493804932,
                -4.101049423217773,
                -17.504192352294922
            ],
            "type" : "VEC3"
        },
        {
            "bufferView" : 7,
            "componentType" : 5126,
            "count" : 480,
            "type" : "VEC3"
        },
        {
            "bufferView" : 8,
            "componentType" : 5123,
            "count" : 480,
            "type" : "SCALAR"
        },
        {
            "bufferView" : 9,
            "componentType" : 5126,
            "count" : 402,
            "max" : [
                3.1118886470794678,
                2.3772568702697754,
                -0.02016448974609375
            ],
            "min" : [
                -1.9462206363677979,
                -1.9995816946029663,
                -11.394800186157227
            ],
            "type" : "VEC3"
        },
        {
            "bufferView" : 10,
            "componentType" : 5126,
            "count" : 402,
            "type" : "VEC3"
        },
        {
            "bufferView" : 11,
            "componentType" : 5123,
            "count" : 450,
            "type" : "SCALAR"
        },
        {
            "bufferView" : 12,
            "componentType" : 5126,
            "count" : 2016,
            "max" : [
                3.5067451000213623,
                3.0197455883026123,
                -4.26507043838501
            ],
            "min" : [
                -3.4527406692504883,
                -2.760294198989868,
                -9.642765998840332
            ],
            "type" : "VEC3"
        },
        {
            "bufferView" : 13,
            "componentType" : 5126,
            "count" : 2016,
            "type" : "VEC3"
        },
        {
            "bufferView" : 14,
            "componentType" : 5123,
            "count" : 2070,
            "type" : "SCALAR"
        },
        {
            "bufferView" : 15,
            "componentType" : 5126,
            "count" : 486,
            "max" : [
                1.4441039562225342,
                1.4788681268692017,
                -0.044640302658081055
            ],
            "min" : [
                -1.3494417667388916,
                -1.3305617570877075,
                -6.48716402053833
            ],
            "type" : "VEC3"
        },
        {
            "bufferView" : 16,
            "componentType" : 5126,
            "count" : 486,
            "type" : "VEC3"
        },
        {
            "bufferView" : 17,
            "componentType" : 5123,
            "count" : 570,
            "type" : "SCALAR"
        },
        {
            "bufferView" : 18,
            "componentType" : 5126,
            "count" : 1942,
            "max" : [
                6.100706577301025,
                5.660797119140625,
                -8.516985893249512
            ],
            "min" : [
                -3.8052406311035156,
                -4.882929801940918,
                -13.96341609954834
            ],
            "type" : "VEC3"
        },
        {
            "bufferView" : 19,
            "componentType" : 5126,
            "count" : 1942,
            "type" : "VEC3"
        },
        {
            "bufferView" : 20,
            "componentType" : 5123,
            "count" : 1944,
            "type" : "SCALAR"
        },
        {
            "bufferView" : 21,
            "componentType" : 5126,
            "count" : 872,
            "max" : [
                4.3962531089782715,
                3.4038538932800293,
                -0.3331981301307678
            ],
            "min" : [
                -1.6410161256790161,
                -2.480372190475464,
                -11.887075424194336
            ],
            "type" : "VEC3"
        },
        {
            "bufferView" : 22,
            "componentType" : 5126,
            "count" : 872,
            "type" : "VEC3"
        },
        {
            "bufferView" : 23,
            "componentType" : 5123,
            "count" : 1050,
            "type" : "SCALAR"
        }
    ],
    "bufferViews" : [
        {
            "buffer" : 0,
            "byteLength" : 15384,
            "byteOffset" : 0
        },
        {
            "buffer" : 0,
            "byteLength" : 15384,
            "byteOffset" : 15384
        },
        {
            "buffer" : 0,
            "byteLength" : 3240,
            "byteOffset" : 30768
        },
        {
            "buffer" : 0,
            "byteLength" : 4704,
            "byteOffset" : 34008
        },
        {
            "buffer" : 0,
            "byteLength" : 4704,
            "byteOffset" : 38712
        },
        {
            "buffer" : 0,
            "byteLength" : 900,
            "byteOffset" : 43416
        },
        {
            "buffer" : 0,
            "byteLength" : 5760,
            "byteOffset" : 44316
        },
        {
            "buffer" : 0,
            "byteLength" : 5760,
            "byteOffset" : 50076
        },
        {
            "buffer" : 0,
            "byteLength" : 960,
            "byteOffset" : 55836
        },
        {
            "buffer" : 0,
            "byteLength" : 4824,
            "byteOffset" : 56796
        },
        {
            "buffer" : 0,
            "byteLength" : 4824,
            "byteOffset" : 61620
        },
        {
            "buffer" : 0,
            "byteLength" : 900,
            "byteOffset" : 66444
        },
        {
            "buffer" : 0,
            "byteLength" : 24192,
            "byteOffset" : 67344
        },
        {
            "buffer" : 0,
            "byteLength" : 24192,
            "byteOffset" : 91536
        },
        {
            "buffer" : 0,
            "byteLength" : 4140,
            "byteOffset" : 115728
        },
        {
            "buffer" : 0,
            "byteLength" : 5832,
            "byteOffset" : 119868
        },
        {
            "buffer" : 0,
            "byteLength" : 5832,
            "byteOffset" : 125700
        },
        {
            "buffer" : 0,
            "byteLength" : 1140,
            "byteOffset" : 131532
        },
        {
            "buffer" : 0,
            "byteLength" : 23304,
            "byteOffset" : 132672
        },
        {
            "buffer" : 0,
            "byteLength" : 23304,
            "byteOffset" : 155976
        },
        {
            "buffer" : 0,
            "byteLength" : 3888,
            "byteOffset" : 179280
        },
        {
            "buffer" : 0,
            "byteLength" : 10464,
            "byteOffset" : 183168
        },
        {
            "buffer" : 0,
            "byteLength" : 10464,
            "byteOffset" : 193632
        },
        {
            "buffer" : 0,
            "byteLength" : 2100,
            "byteOffset" : 204096
        }
    ],
    "buffers" : [
        {
            "byteLength" : 206196,
            "uri" : "trees.bin"
        }
    ]
}
