{
    "asset" : {
        "generator" : "Khronos glTF Blender I/O v0.9.36",
        "version" : "2.0"
    },
    "scene" : 0,
    "scenes" : [
        {
            "name" : "Scene",
            "nodes" : [
                0,
                1,
                2,
                3,
                4,
                5,
                6,
                7
            ]
        }
    ],
    "nodes" : [
        {
            "mesh" : 0,
            "name" : "stackLeaves",
            "rotation" : [
                0.7111825942993164,
                0.005665160715579987,
                -0.013955805450677872,
                0.7028460502624512
            ],
            "translation" : [
                0.13190622627735138,
                8.328449249267578,
                -0.09551131725311279
            ]
        },
        {
            "mesh" : 1,
            "name" : "stackTrunk",
            "rotation" : [
                0.7111825942993164,
                0.005665160715579987,
                -0.013955805450677872,
                0.7028460502624512
            ],
            "translation" : [
                0.13190622627735138,
                8.328449249267578,
                -0.09551131725311279
            ]
        },
        {
            "mesh" : 2,
            "name" : "normieLeaves",
            "rotation" : [
                0.7020490765571594,
                -0.38017380237579346,
                -0.1227760910987854,
                0.5895095467567444
            ],
            "scale" : [
                1.8029463291168213,
                1.8029464483261108,
                1.8029463291168213
            ],
            "translation" : [
                0.6362937092781067,
                5.301333904266357,
                -1.1928547620773315
            ]
        },
        {
            "mesh" : 3,
            "name" : "normieTrunk",
            "rotation" : [
                0.7020490765571594,
                -0.38017380237579346,
                -0.1227760910987854,
                0.5895095467567444
            ],
            "scale" : [
                1.8029463291168213,
                1.8029464483261108,
                1.8029463291168213
            ],
            "translation" : [
                0.6362937092781067,
                5.301333904266357,
                -1.1928547620773315
            ]
        },
        {
            "mesh" : 4,
            "name" : "roseLeaves",
            "rotation" : [
                0.7111825942993164,
                0.005665160715579987,
                -0.013955805450677872,
                0.7028460502624512
            ],
            "scale" : [
                0.5708329081535339,
                0.5708329081535339,
                0.5708329081535339
            ],
            "translation" : [
                0.06245875358581543,
                0.889938473701477,
                0.0016953349113464355
            ]
        },
        {
            "mesh" : 5,
            "name" : "roseTrunk",
            "rotation" : [
                0.7111825942993164,
                0.005665160715579987,
                -0.013955805450677872,
                0.7028460502624512
            ],
            "scale" : [
                0.5708329081535339,
                0.5708329081535339,
                0.5708329081535339
            ],
            "translation" : [
                0.06245875358581543,
                0.889938473701477,
                0.0016953349113464355
            ]
        },
        {
            "mesh" : 6,
            "name" : "plateLeaves",
            "rotation" : [
                0.601868748664856,
                0.292783260345459,
                -0.5096229314804077,
                0.5406635403633118
            ],
            "scale" : [
                1.5210987329483032,
                1.5210988521575928,
                1.5210988521575928
            ],
            "translation" : [
                1.5966531038284302,
                5.391653060913086,
                0.020448828116059303
            ]
        },
        {
            "mesh" : 7,
            "name" : "plateTrunk",
            "rotation" : [
                0.601868748664856,
                0.292783260345459,
                -0.5096229314804077,
                0.5406635403633118
            ],
            "scale" : [
                1.5210987329483032,
                1.5210988521575928,
                1.5210988521575928
            ],
            "translation" : [
                1.5966531038284302,
                5.391653060913086,
                0.020448828116059303
            ]
        }
    ],
    "materials" : [
        {
            "doubleSided" : true,
            "emissiveFactor" : [
                0,
                0,
                0
            ],
            "name" : "Material.002",
            "pbrMetallicRoughness" : {
                "baseColorFactor" : [
                    0.13370588421821594,
                    0.28069689869880676,
                    0.08395107090473175,
                    1
                ],
                "metallicFactor" : 0,
                "roughnessFactor" : 0.6000000238418579
            }
        },
        {
            "doubleSided" : true,
            "emissiveFactor" : [
                0,
                0,
                0
            ],
            "name" : "Material.001",
            "pbrMetallicRoughness" : {
                "baseColorFactor" : [
                    0.15426279604434967,
                    0.03292083740234375,
                    0.03292083740234375,
                    1
                ],
                "metallicFactor" : 0,
                "roughnessFactor" : 0.6000000238418579
            }
        }
    ],
    "meshes" : [
        {
            "name" : "Plane.007",
            "primitives" : [
                {
                    "attributes" : {
                        "POSITION" : 0,
                        "NORMAL" : 1
                    },
                    "indices" : 2,
                    "material" : 0
                }
            ]
        },
        {
            "name" : "Plane.000",
            "primitives" : [
                {
                    "attributes" : {
                        "POSITION" : 3,
                        "NORMAL" : 4
                    },
                    "indices" : 5,
                    "material" : 1
                }
            ]
        },
        {
            "name" : "Icosphere.003",
            "primitives" : [
                {
                    "attributes" : {
                        "POSITION" : 6,
                        "NORMAL" : 7
                    },
                    "indices" : 8,
                    "material" : 0
                }
            ]
        },
        {
            "name" : "Icosphere.000",
            "primitives" : [
                {
                    "attributes" : {
                        "POSITION" : 9,
                        "NORMAL" : 10
                    },
                    "indices" : 11,
                    "material" : 1
                }
            ]
        },
        {
            "name" : "Cylinder.000",
            "primitives" : [
                {
                    "attributes" : {
                        "POSITION" : 12,
                        "NORMAL" : 13
                    },
                    "indices" : 14,
                    "material" : 0
                }
            ]
        },
        {
            "name" : "Cylinder.001",
            "primitives" : [
                {
                    "attributes" : {
                        "POSITION" : 15,
                        "NORMAL" : 16
                    },
                    "indices" : 17,
                    "material" : 1
                }
            ]
        },
        {
            "name" : "Cylinder.003",
            "primitives" : [
                {
                    "attributes" : {
                        "POSITION" : 18,
                        "NORMAL" : 19
                    },
                    "indices" : 20,
                    "material" : 0
                }
            ]
        },
        {
            "name" : "Cylinder.004",
            "primitives" : [
                {
                    "attributes" : {
                        "POSITION" : 21,
                        "NORMAL" : 22
                    },
                    "indices" : 23,
                    "material" : 1
                }
            ]
        }
    ],
    "accessors" : [
        {
            "bufferView" : 0,
            "componentType" : 5126,
            "count" : 1218,
            "max" : [
                2.304260015487671,
                2.811729907989502,
                4.154379844665527
            ],
            "min" : [
                -2.7947099208831787,
                -2.382460117340088,
                -0.15121999382972717
            ],
            "type" : "VEC3"
        },
        {
            "bufferView" : 1,
            "componentType" : 5126,
            "count" : 1218,
            "type" : "VEC3"
        },
        {
            "bufferView" : 2,
            "componentType" : 5123,
            "count" : 1620,
            "type" : "SCALAR"
        },
        {
            "bufferView" : 3,
            "componentType" : 5126,
            "count" : 388,
            "max" : [
                1.1224499940872192,
                1.593250036239624,
                8.273839950561523
            ],
            "min" : [
                -1.3166699409484863,
                -1.0216399431228638,
                2.5821900367736816
            ],
            "type" : "VEC3"
        },
        {
            "bufferView" : 4,
            "componentType" : 5126,
            "count" : 388,
            "type" : "VEC3"
        },
        {
            "bufferView" : 5,
            "componentType" : 5123,
            "count" : 450,
            "type" : "SCALAR"
        },
        {
            "bufferView" : 6,
            "componentType" : 5126,
            "count" : 480,
            "max" : [
                1.2858799695968628,
                2.0239100456237793,
                1.3389500379562378
            ],
            "min" : [
                -1.7072700262069702,
                -0.8506399989128113,
                -1.7594000101089478
            ],
            "type" : "VEC3"
        },
        {
            "bufferView" : 7,
            "componentType" : 5126,
            "count" : 480,
            "type" : "VEC3"
        },
        {
            "bufferView" : 8,
            "componentType" : 5123,
            "count" : 480,
            "type" : "SCALAR"
        },
        {
            "bufferView" : 9,
            "componentType" : 5126,
            "count" : 402,
            "max" : [
                2.333169937133789,
                1.4450600147247314,
                2.627239942550659
            ],
            "min" : [
                -0.9598199725151062,
                0.15897999703884125,
                -0.6243600249290466
            ],
            "type" : "VEC3"
        },
        {
            "bufferView" : 10,
            "componentType" : 5126,
            "count" : 402,
            "type" : "VEC3"
        },
        {
            "bufferView" : 11,
            "componentType" : 5123,
            "count" : 450,
            "type" : "SCALAR"
        },
        {
            "bufferView" : 12,
            "componentType" : 5126,
            "count" : 2016,
            "max" : [
                4.590050220489502,
                4.08027982711792,
                -4.074649810791016
            ],
            "min" : [
                -4.672130107879639,
                -3.6122100353240967,
                -11.231670379638672
            ],
            "type" : "VEC3"
        },
        {
            "bufferView" : 13,
            "componentType" : 5126,
            "count" : 2016,
            "type" : "VEC3"
        },
        {
            "bufferView" : 14,
            "componentType" : 5123,
            "count" : 2070,
            "type" : "SCALAR"
        },
        {
            "bufferView" : 15,
            "componentType" : 5126,
            "count" : 482,
            "max" : [
                1.844939947128296,
                2.0295701026916504,
                1.542199969291687
            ],
            "min" : [
                -1.8729100227355957,
                -1.7094199657440186,
                -7.031970024108887
            ],
            "type" : "VEC3"
        },
        {
            "bufferView" : 16,
            "componentType" : 5126,
            "count" : 482,
            "type" : "VEC3"
        },
        {
            "bufferView" : 17,
            "componentType" : 5123,
            "count" : 570,
            "type" : "SCALAR"
        },
        {
            "bufferView" : 18,
            "componentType" : 5126,
            "count" : 1792,
            "max" : [
                1.05253005027771,
                1,
                1.2676600217819214
            ],
            "min" : [
                -2.3945200443267822,
                -3.0742599964141846,
                -1.153630018234253
            ],
            "type" : "VEC3"
        },
        {
            "bufferView" : 19,
            "componentType" : 5126,
            "count" : 1792,
            "type" : "VEC3"
        },
        {
            "bufferView" : 20,
            "componentType" : 5123,
            "count" : 1944,
            "type" : "SCALAR"
        },
        {
            "bufferView" : 21,
            "componentType" : 5126,
            "count" : 872,
            "max" : [
                0.9602699875831604,
                0.47859999537467957,
                3.82273006439209
            ],
            "min" : [
                -1.4852099418640137,
                -2.2475500106811523,
                -0.35131001472473145
            ],
            "type" : "VEC3"
        },
        {
            "bufferView" : 22,
            "componentType" : 5126,
            "count" : 872,
            "type" : "VEC3"
        },
        {
            "bufferView" : 23,
            "componentType" : 5123,
            "count" : 1050,
            "type" : "SCALAR"
        }
    ],
    "bufferViews" : [
        {
            "buffer" : 0,
            "byteLength" : 14616,
            "byteOffset" : 0
        },
        {
            "buffer" : 0,
            "byteLength" : 14616,
            "byteOffset" : 14616
        },
        {
            "buffer" : 0,
            "byteLength" : 3240,
            "byteOffset" : 29232
        },
        {
            "buffer" : 0,
            "byteLength" : 4656,
            "byteOffset" : 32472
        },
        {
            "buffer" : 0,
            "byteLength" : 4656,
            "byteOffset" : 37128
        },
        {
            "buffer" : 0,
            "byteLength" : 900,
            "byteOffset" : 41784
        },
        {
            "buffer" : 0,
            "byteLength" : 5760,
            "byteOffset" : 42684
        },
        {
            "buffer" : 0,
            "byteLength" : 5760,
            "byteOffset" : 48444
        },
        {
            "buffer" : 0,
            "byteLength" : 960,
            "byteOffset" : 54204
        },
        {
            "buffer" : 0,
            "byteLength" : 4824,
            "byteOffset" : 55164
        },
        {
            "buffer" : 0,
            "byteLength" : 4824,
            "byteOffset" : 59988
        },
        {
            "buffer" : 0,
            "byteLength" : 900,
            "byteOffset" : 64812
        },
        {
            "buffer" : 0,
            "byteLength" : 24192,
            "byteOffset" : 65712
        },
        {
            "buffer" : 0,
            "byteLength" : 24192,
            "byteOffset" : 89904
        },
        {
            "buffer" : 0,
            "byteLength" : 4140,
            "byteOffset" : 114096
        },
        {
            "buffer" : 0,
            "byteLength" : 5784,
            "byteOffset" : 118236
        },
        {
            "buffer" : 0,
            "byteLength" : 5784,
            "byteOffset" : 124020
        },
        {
            "buffer" : 0,
            "byteLength" : 1140,
            "byteOffset" : 129804
        },
        {
            "buffer" : 0,
            "byteLength" : 21504,
            "byteOffset" : 130944
        },
        {
            "buffer" : 0,
            "byteLength" : 21504,
            "byteOffset" : 152448
        },
        {
            "buffer" : 0,
            "byteLength" : 3888,
            "byteOffset" : 173952
        },
        {
            "buffer" : 0,
            "byteLength" : 10464,
            "byteOffset" : 177840
        },
        {
            "buffer" : 0,
            "byteLength" : 10464,
            "byteOffset" : 188304
        },
        {
            "buffer" : 0,
            "byteLength" : 2100,
            "byteOffset" : 198768
        }
    ],
    "buffers" : [
        {
            "byteLength" : 200868,
            "uri" : "trees.bin"
        }
    ]
}
