<svg viewBox="0 0 512 512" xmlns="http://www.w3.org/2000/svg"><path d="M338.485 138l-63.283-63.283A21.85 21.85 0 00278 64c0-12.131-9.869-22-22-22s-22 9.869-22 22a21.86 21.86 0 002.797 10.717L173.515 138H0v332h512V138zM256 54c5.514 0 10 4.486 10 10s-4.486 10-10 10-10-4.486-10-10 4.486-10 10-10zm-10.717 29.203A21.857 21.857 0 00256 86a21.86 21.86 0 0010.717-2.797L321.515 138h-131.03zM491.515 150l-20 20H40.485l-20-20zM352 285.515V262h71.515L468 306.485V426H368v-23.515L402.485 368 384 349.515l.001-32zM428.485 250H340v40.485l32.001 32-.001 32L385.515 368 356 397.515V426H196.485L220 402.485V362h-51.515l-16-16h-32l-48-48H44V182h42v28.485l32 32V294h24.485l48-48h32l16-16H290v-35.515L302.485 182H468v107.515zm-248.97 176H44V310h23.515l48 48h32l16 16H208v23.515zM98 205.515V182h187.515L278 189.515V218h-44.485l-16 16h-32l-48 48H130v-44.485zm-86-47.03l20 20v251.029l-20 20zM20.485 458l20-20h431.029l20 20zM500 449.515l-20-20v-251.03l20-20z"/><path d="M234 317.515V342h35.515l16 16H326v-60h-72.485zM314 310v36h-23.515l-16-16H246v-7.515L258.485 310z"/></svg>