<svg height="640" viewBox="0 -16 480 480" width="640" xmlns="http://www.w3.org/2000/svg"><path d="M.55 410.754c.075.176.114.351.184.527.075.176.059.2.106.293l16 32A8.001 8.001 0 0024 448h96a8.001 8.001 0 007.16-4.426l16-32c.047-.094.055-.199.106-.293.047-.097.109-.351.183-.527.293-.793.461-1.625.496-2.465 0-.098.055-.184.055-.289V232c0-.105-.055-.191-.055-.29a8.092 8.092 0 00-.496-2.464c-.074-.176-.113-.351-.183-.527-.075-.176-.059-.2-.106-.293l-16-32A8.001 8.001 0 00120 192H24a8.001 8.001 0 00-7.16 4.426l-16 32c-.047.094-.055.199-.106.293-.047.097-.109.351-.183.527a8.02 8.02 0 00-.496 2.457c0 .106-.055.192-.055.297v176c0 .105.055.191.055.297a8.02 8.02 0 00.496 2.457zM115.056 432h-86.11l-8-16h102.11zm-86.11-224h86.11l8 16H20.945zM16 240h112v18.586l-12.688 5.078A116.192 116.192 0 0172 272a131.937 131.937 0 00-49.246 9.488L16 284.184zm0 61.414l12.688-5.078A116.192 116.192 0 0172 288a131.937 131.937 0 0049.246-9.488l6.754-2.696v62.77l-12.688 5.078A116.192 116.192 0 0172 352a131.937 131.937 0 00-49.246 9.488L16 364.184zm0 80l12.688-5.078A116.192 116.192 0 0172 368a131.937 131.937 0 0049.246-9.488l6.754-2.696V400H16zm0 0M184 448h96c13.254 0 24-10.746 24-24V241.184a167.301 167.301 0 00-21.008-81.07A151.3 151.3 0 01264 86.815V8a8 8 0 00-8-8h-48a8 8 0 00-8 8v78.816a151.3 151.3 0 01-18.992 73.297A167.301 167.301 0 00160 241.183V424c0 13.254 10.746 24 24 24zm104-206.816V360h-80V240h79.96c.04.39.04.8.04 1.184zM216 16h32v16h-32zm-40 225.184a151.3 151.3 0 0118.992-73.297A167.301 167.301 0 00216 86.817V48h32v38.816a167.301 167.301 0 0021.008 81.07A151.204 151.204 0 01286.96 224H200a8 8 0 00-8 8v136a8 8 0 008 8h88v48a8 8 0 01-8 8h-96a8 8 0 01-8-8zm0 0M352 448a32.052 32.052 0 0023.848-10.664l.16-.176a32.003 32.003 0 0048 0A32 32 0 00480 416V200c-.059-31.777-18.89-60.516-48-73.258V120h8v-16h-8V88c0-8.836-7.164-16-16-16h-32c-8.836 0-16 7.164-16 16v16h-8v16h8v6.742c-29.11 12.742-47.941 41.48-48 73.258v216c0 17.672 14.328 32 32 32zm32-360h32v16h-32zm-48 112c.055-27.09 17.137-51.223 42.672-60.273a7.996 7.996 0 005.328-7.543V120h32v12.184a7.996 7.996 0 005.328 7.543C446.863 148.777 463.945 172.91 464 200v8H336zm0 24h128v136H336zm0 152h128v40c0 8.836-7.164 16-16 16s-16-7.164-16-16a8 8 0 00-16 0c0 8.836-7.164 16-16 16s-16-7.164-16-16a8 8 0 00-16 0c0 8.836-7.164 16-16 16s-16-7.164-16-16zm0 0"/></svg>