<svg xmlns="http://www.w3.org/2000/svg" viewBox="0 0 448 448"><path d="M448 249c0-57.346-46.654-104-104-104-20.33 0-40.22 6.023-57.089 17.095-4.38-19.182-10.203-37.662-17.235-54.198C250.781 63.469 226.036 39 200 39c-26.065 0-50.81 24.368-69.673 68.615-6.645 15.587-12.212 32.94-16.501 51.01l-26.108-95.73a8 8 0 00-15.436.001l-72 264A8 8 0 008 337h64v64a8 8 0 0016 0v-64h64a7.995 7.995 0 006.357-3.145 7.99 7.99 0 001.594-5.606A95.38 95.38 0 00192 336.664V401a8 8 0 0016 0v-64.335c20.768-1.719 39.684-10.067 54.62-22.92A103.978 103.978 0 00336 352.681V401a8 8 0 0016 0v-48.305c53.622-4.098 96-49.041 96-103.695zm-306.474 72H88v-12.686l14.157-14.157a8 8 0 00-11.314-11.314L88 285.685V233a8 8 0 00-16 0v36.686l-10.343-10.343a8 8 0 00-11.314 11.314L72 292.314V321H18.474L80 95.404l27.105 99.383c-2.109 15.543-3.23 31.11-3.23 46.087 0 30.408 14.196 57.559 36.304 75.186l1.347 4.94zM208 308.314l29.657-29.657a8 8 0 00-11.314-11.314L208 285.685v-33.371l21.657-21.657a8 8 0 00-11.314-11.314L208 229.685V209a8 8 0 00-16 0V269.685l-18.343-18.343a8 8 0 00-11.314 11.314L192 292.314v28.284c-40.438-4.028-72.125-38.244-72.125-79.724 0-42.544 9.409-90.016 25.17-126.984C161.001 76.465 181.031 55 200 55c18.934 0 38.963 21.563 54.952 59.159 15.763 37.064 25.173 84.435 25.173 126.716 0 41.481-31.687 75.697-72.125 79.724v-12.285zm144 28.319v-12.318l29.657-29.657a8 8 0 00-11.314-11.314L352 301.685V249a8 8 0 00-16 0v36.686l-18.343-18.343a8 8 0 00-11.314 11.314L336 308.314v28.32c-24.538-2.234-47.064-14.677-62.066-34.398 13.85-16.659 22.191-38.054 22.191-61.362 0-19.952-2.01-40.994-5.723-61.656C305.707 167.458 324.618 161 344 161c48.523 0 88 39.477 88 88 0 45.826-35.212 83.577-80 87.633z"/></svg>