{
    "asset" : {
        "generator" : "Khronos glTF Blender I/O v0.9.36",
        "version" : "2.0"
    },
    "scene" : 0,
    "scenes" : [
        {
            "name" : "Scene",
            "nodes" : [
                0
            ]
        }
    ],
    "nodes" : [
        {
            "mesh" : 0,
            "name" : "Object_3",
            "rotation" : [
                0,
                0,
                0,
                0
            ],
            "translation" : [
                -0.02207670547068119,
                21.66463851928711,
                -0.03092418797314167
            ]
        }
    ],
    "meshes" : [
        {
            "name" : "Mesh_0.001",
            "primitives" : [
                {
                    "attributes" : {
                        "POSITION" : 0,
                        "NORMAL" : 1
                    },
                    "indices" : 2
                }
            ]
        }
    ],
    "accessors" : [
        {
            "bufferView" : 0,
            "componentType" : 5126,
            "count" : 879,
            "max" : [
                30.861812591552734,
                14.566391944885254,
                10.449837684631348
            ],
            "min" : [
                -27.57431411743164,
                -13.335453987121582,
                -15.1577730178833
            ],
            "type" : "VEC3"
        },
        {
            "bufferView" : 1,
            "componentType" : 5126,
            "count" : 879,
            "type" : "VEC3"
        },
        {
            "bufferView" : 2,
            "componentType" : 5123,
            "count" : 2232,
            "type" : "SCALAR"
        }
    ],
    "bufferViews" : [
        {
            "buffer" : 0,
            "byteLength" : 10548,
            "byteOffset" : 0
        },
        {
            "buffer" : 0,
            "byteLength" : 10548,
            "byteOffset" : 10548
        },
        {
            "buffer" : 0,
            "byteLength" : 4464,
            "byteOffset" : 21096
        }
    ],
    "buffers" : [
        {
            "byteLength" : 25560,
            "uri" : "cloudcube.bin"
        }
    ]
}
