{
  "accessors": [
    {
      "bufferView": 2,
      "componentType": 5126,
      "count": 213,
      "max": [
        40.839179992675781,
        59.687835693359375,
        54.956497192382812
      ],
      "min": [
        -40.839179992675781,
        -0.8180689811706543,
        -55.343154907226562
      ],
      "type": "VEC3"
    },
    {
      "bufferView": 2,
      "byteOffset": 2556,
      "componentType": 5126,
      "count": 213,
      "max": [
        0.99820244312286377,
        0.99483215808868408,
        0.97490072250366211
      ],
      "min": [
        -0.99820244312286377,
        -0.9987214207649231,
        -0.9825369119644165
      ],
      "type": "VEC3"
    },
    {
      "bufferView": 3,
      "componentType": 5126,
      "count": 213,
      "max": [
        0.99976241588592529,
        0.96742165088653564,
        0.86464971303939819,
        1
      ],
      "min": [
        -0.99997198581695557,
        -0.99886918067932129,
        -0.90307796001434326,
        1
      ],
      "type": "VEC4"
    },
    {
      "bufferView": 1,
      "componentType": 5126,
      "count": 213,
      "max": [
        0.99077874422073364,
        0.99389666318893433
      ],
      "min": [
        0.0037031583487987518,
        0.012209450826048851
      ],
      "type": "VEC2"
    },
    {
      "bufferView": 1,
      "byteOffset": 1704,
      "componentType": 5126,
      "count": 213,
      "max": [
        0.99077874422073364,
        0.99389666318893433
      ],
      "min": [
        0.0037031583487987518,
        0.012209450826048851
      ],
      "type": "VEC2"
    },
    {
      "bufferView": 0,
      "componentType": 5125,
      "count": 936,
      "max": [
        212
      ],
      "min": [
        0
      ],
      "type": "SCALAR"
    }
  ],
  "asset": {
    "extras": {
      "author": "sebbyling (https://sketchfab.com/ghsfan3)",
      "license": "CC-BY-4.0 (http://creativecommons.org/licenses/by/4.0/)",
      "source": "https://sketchfab.com/models/4635760609da473280d48f7f937c92be",
      "title": "Crushed Can"
    },
    "generator": "Sketchfab-3.33.1",
    "version": "2.0"
  },
  "bufferViews": [
    {
      "buffer": 0,
      "byteLength": 3744,
      "byteOffset": 0,
      "name": "floatBufferViews",
      "target": 34963
    },
    {
      "buffer": 0,
      "byteLength": 3408,
      "byteOffset": 3744,
      "byteStride": 8,
      "name": "floatBufferViews",
      "target": 34962
    },
    {
      "buffer": 0,
      "byteLength": 5112,
      "byteOffset": 7152,
      "byteStride": 12,
      "name": "floatBufferViews",
      "target": 34962
    },
    {
      "buffer": 0,
      "byteLength": 3408,
      "byteOffset": 12264,
      "byteStride": 16,
      "name": "floatBufferViews",
      "target": 34962
    }
  ],
  "buffers": [
    {
      "byteLength": 15672,
      "uri": "scene.bin"
    }
  ],
  "images": [
    {
      "uri": "textures/blinn1_baseColor.png"
    }
  ],
  "materials": [
    {
      "alphaMode": "BLEND",
      "doubleSided": true,
      "emissiveFactor": [
        0,
        0,
        0
      ],
      "name": "blinn1",
      "pbrMetallicRoughness": {
        "baseColorFactor": [
          1,
          1,
          1,
          1
        ],
        "baseColorTexture": {
          "index": 0,
          "texCoord": 0
        },
        "metallicFactor": 0,
        "roughnessFactor": 0.92074838159999994
      }
    }
  ],
  "meshes": [
    {
      "name": "canMesh_blinn1_0",
      "primitives": [
        {
          "attributes": {
            "NORMAL": 1,
            "POSITION": 0,
            "TANGENT": 2,
            "TEXCOORD_0": 3,
            "TEXCOORD_1": 4
          },
          "indices": 5,
          "material": 0,
          "mode": 4
        }
      ]
    }
  ],
  "nodes": [
    {
      "children": [
        1
      ],
      "name": "RootNode (gltf orientation matrix)",
      "rotation": [
        -0.70710678118654746,
        -0,
        -0,
        0.70710678118654757
      ]
    },
    {
      "children": [
        2
      ],
      "name": "RootNode (model correction matrix)"
    },
    {
      "children": [
        3
      ],
      "matrix": [
        1,
        0,
        0,
        0,
        0,
        0,
        1,
        0,
        0,
        -1,
        0,
        0,
        0,
        0,
        0,
        1
      ],
      "name": "canMesh.fbx"
    },
    {
      "children": [
        4
      ],
      "name": "RootNode"
    },
    {
      "children": [
        5
      ],
      "name": "canMesh"
    },
    {
      "mesh": 0,
      "name": "canMesh_blinn1_0"
    }
  ],
  "samplers": [
    {
      "magFilter": 9729,
      "minFilter": 9987,
      "wrapS": 10497,
      "wrapT": 10497
    }
  ],
  "scene": 0,
  "scenes": [
    {
      "name": "OSG_Scene",
      "nodes": [
        0
      ]
    }
  ],
  "textures": [
    {
      "sampler": 0,
      "source": 0
    }
  ]
}

