{
    "asset" : {
        "generator" : "Khronos glTF Blender I/O v0.9.36",
        "version" : "2.0"
    },
    "scene" : 0,
    "scenes" : [
        {
            "name" : "Scene",
            "nodes" : [
                0
            ]
        }
    ],
    "nodes" : [
        {
            "mesh" : 0,
            "name" : "canMesh_blinn1_0.001",
            "rotation" : [
                0.6837824583053589,
                0.14659646153450012,
                -0.07789747416973114,
                0.7105512619018555
            ],
            "scale" : [
                -0.13039743900299072,
                -0.13039743900299072,
                -0.13039743900299072
            ]
        }
    ],
    "meshes" : [
        {
            "name" : "canMesh_blinn1_0.001",
            "primitives" : [
                {
                    "attributes" : {
                        "POSITION" : 0,
                        "NORMAL" : 1,
                        "TEXCOORD_0" : 2,
                        "TEXCOORD_1" : 3
                    },
                    "indices" : 4
                }
            ]
        }
    ],
    "accessors" : [
        {
            "bufferView" : 0,
            "componentType" : 5126,
            "count" : 259,
            "max" : [
                40.83917999267578,
                54.95649719238281,
                0.8180689811706543
            ],
            "min" : [
                -40.83917999267578,
                -55.34315490722656,
                -59.687835693359375
            ],
            "type" : "VEC3"
        },
        {
            "bufferView" : 1,
            "componentType" : 5126,
            "count" : 259,
            "type" : "VEC3"
        },
        {
            "bufferView" : 2,
            "componentType" : 5126,
            "count" : 259,
            "type" : "VEC2"
        },
        {
            "bufferView" : 3,
            "componentType" : 5126,
            "count" : 259,
            "type" : "VEC2"
        },
        {
            "bufferView" : 4,
            "componentType" : 5123,
            "count" : 936,
            "type" : "SCALAR"
        }
    ],
    "bufferViews" : [
        {
            "buffer" : 0,
            "byteLength" : 3108,
            "byteOffset" : 0
        },
        {
            "buffer" : 0,
            "byteLength" : 3108,
            "byteOffset" : 3108
        },
        {
            "buffer" : 0,
            "byteLength" : 2072,
            "byteOffset" : 6216
        },
        {
            "buffer" : 0,
            "byteLength" : 2072,
            "byteOffset" : 8288
        },
        {
            "buffer" : 0,
            "byteLength" : 1872,
            "byteOffset" : 10360
        }
    ],
    "buffers" : [
        {
            "byteLength" : 12232,
            "uri" : "sodacan.bin"
        }
    ]
}
