{
    "asset" : {
        "generator" : "Khronos glTF Blender I/O v0.9.36",
        "version" : "2.0"
    },
    "scene" : 0,
    "scenes" : [
        {
            "name" : "Scene",
            "nodes" : [
                0
            ]
        }
    ],
    "nodes" : [
        {
            "mesh" : 0,
            "name" : "can",
            "rotation" : [
                0.7032169699668884,
                -0.05499574542045593,
                -0.04241981729865074,
                0.7075748443603516
            ],
            "scale" : [
                0.007723809219896793,
                0.007723813410848379,
                0.007723812013864517
            ],
            "translation" : [
                0.006495052948594093,
                0.008245878852903843,
                0.004684962332248688
            ]
        }
    ],
    "meshes" : [
        {
            "name" : "can",
            "primitives" : [
                {
                    "attributes" : {
                        "POSITION" : 0,
                        "NORMAL" : 1,
                        "TEXCOORD_0" : 2,
                        "TEXCOORD_1" : 3
                    },
                    "indices" : 4
                }
            ]
        }
    ],
    "accessors" : [
        {
            "bufferView" : 0,
            "componentType" : 5126,
            "count" : 259,
            "max" : [
                14.537789344787598,
                19.218942642211914,
                1.626861572265625
            ],
            "min" : [
                -14.001082420349121,
                -19.626953125,
                -19.732091903686523
            ],
            "type" : "VEC3"
        },
        {
            "bufferView" : 1,
            "componentType" : 5126,
            "count" : 259,
            "type" : "VEC3"
        },
        {
            "bufferView" : 2,
            "componentType" : 5126,
            "count" : 259,
            "type" : "VEC2"
        },
        {
            "bufferView" : 3,
            "componentType" : 5126,
            "count" : 259,
            "type" : "VEC2"
        },
        {
            "bufferView" : 4,
            "componentType" : 5123,
            "count" : 936,
            "type" : "SCALAR"
        }
    ],
    "bufferViews" : [
        {
            "buffer" : 0,
            "byteLength" : 3108,
            "byteOffset" : 0
        },
        {
            "buffer" : 0,
            "byteLength" : 3108,
            "byteOffset" : 3108
        },
        {
            "buffer" : 0,
            "byteLength" : 2072,
            "byteOffset" : 6216
        },
        {
            "buffer" : 0,
            "byteLength" : 2072,
            "byteOffset" : 8288
        },
        {
            "buffer" : 0,
            "byteLength" : 1872,
            "byteOffset" : 10360
        }
    ],
    "buffers" : [
        {
            "byteLength" : 12232,
            "uri" : "untitled.bin"
        }
    ]
}
