{
    "asset" : {
        "generator" : "Khronos glTF Blender I/O v0.9.36",
        "version" : "2.0"
    },
    "scene" : 0,
    "scenes" : [
        {
            "name" : "Scene",
            "nodes" : [
                0,
                1
            ]
        }
    ],
    "nodes" : [
        {
            "mesh" : 0,
            "name" : "surface",
            "rotation" : [
                -0.7071065902709961,
                0,
                0,
                0.7071069478988647
            ]
        },
        {
            "mesh" : 1,
            "name" : "water",
            "rotation" : [
                -0.7071065902709961,
                0,
                0,
                0.7071069478988647
            ]
        }
    ],
    "meshes" : [
        {
            "name" : "surface.004",
            "primitives" : [
                {
                    "attributes" : {
                        "POSITION" : 0,
                        "NORMAL" : 1
                    },
                    "indices" : 2
                }
            ]
        },
        {
            "name" : "water.002",
            "primitives" : [
                {
                    "attributes" : {
                        "POSITION" : 3,
                        "NORMAL" : 4
                    },
                    "indices" : 5
                }
            ]
        }
    ],
    "accessors" : [
        {
            "bufferView" : 0,
            "componentType" : 5126,
            "count" : 24584,
            "max" : [
                2.3408703804016113,
                2.745023250579834,
                2.812863349914551
            ],
            "min" : [
                -2.766907215118408,
                -2.773400068283081,
                -2.817533254623413
            ],
            "type" : "VEC3"
        },
        {
            "bufferView" : 1,
            "componentType" : 5126,
            "count" : 24584,
            "type" : "VEC3"
        },
        {
            "bufferView" : 2,
            "componentType" : 5123,
            "count" : 147444,
            "type" : "SCALAR"
        },
        {
            "bufferView" : 3,
            "componentType" : 5126,
            "count" : 37747,
            "max" : [
                2.5288126468658447,
                2.5628340244293213,
                2.579035758972168
            ],
            "min" : [
                -2.6026270389556885,
                -2.568593740463257,
                -2.5147812366485596
            ],
            "type" : "VEC3"
        },
        {
            "bufferView" : 4,
            "componentType" : 5126,
            "count" : 37747,
            "type" : "VEC3"
        },
        {
            "bufferView" : 5,
            "componentType" : 5123,
            "count" : 226410,
            "type" : "SCALAR"
        }
    ],
    "bufferViews" : [
        {
            "buffer" : 0,
            "byteLength" : 295008,
            "byteOffset" : 0
        },
        {
            "buffer" : 0,
            "byteLength" : 295008,
            "byteOffset" : 295008
        },
        {
            "buffer" : 0,
            "byteLength" : 294888,
            "byteOffset" : 590016
        },
        {
            "buffer" : 0,
            "byteLength" : 452964,
            "byteOffset" : 884904
        },
        {
            "buffer" : 0,
            "byteLength" : 452964,
            "byteOffset" : 1337868
        },
        {
            "buffer" : 0,
            "byteLength" : 452820,
            "byteOffset" : 1790832
        }
    ],
    "buffers" : [
        {
            "byteLength" : 2243652,
            "uri" : "newplanet.bin"
        }
    ]
}
