{
    "asset" : {
        "generator" : "Khronos glTF Blender I/O v0.9.36",
        "version" : "2.0"
    },
    "scene" : 0,
    "scenes" : [
        {
            "name" : "Scene",
            "nodes" : [
                0,
                1,
                2
            ]
        }
    ],
    "nodes" : [
        {
            "mesh" : 0,
            "name" : "workableSurface"
        },
        {
            "mesh" : 1,
            "name" : "surface",
            "rotation" : [
                0.7071068286895752,
                0,
                0,
                0.7071067094802856
            ]
        },
        {
            "mesh" : 2,
            "name" : "water",
            "rotation" : [
                0.7071068286895752,
                0,
                0,
                0.7071067094802856
            ]
        }
    ],
    "meshes" : [
        {
            "name" : "surface.001",
            "primitives" : [
                {
                    "attributes" : {
                        "POSITION" : 0,
                        "NORMAL" : 1
                    },
                    "indices" : 2
                }
            ]
        },
        {
            "name" : "surface.002",
            "primitives" : [
                {
                    "attributes" : {
                        "POSITION" : 3,
                        "NORMAL" : 4
                    },
                    "indices" : 5
                }
            ]
        },
        {
            "name" : "water.001",
            "primitives" : [
                {
                    "attributes" : {
                        "POSITION" : 6,
                        "NORMAL" : 7
                    },
                    "indices" : 8
                }
            ]
        }
    ],
    "accessors" : [
        {
            "bufferView" : 0,
            "componentType" : 5126,
            "count" : 8619,
            "max" : [
                1.3724275827407837,
                1.5906727313995361,
                1.5859358310699463
            ],
            "min" : [
                -1.5712677240371704,
                -1.6027361154556274,
                -1.5692201852798462
            ],
            "type" : "VEC3"
        },
        {
            "bufferView" : 1,
            "componentType" : 5126,
            "count" : 8619,
            "type" : "VEC3"
        },
        {
            "bufferView" : 2,
            "componentType" : 5123,
            "count" : 48084,
            "type" : "SCALAR"
        },
        {
            "bufferView" : 3,
            "componentType" : 5126,
            "count" : 24587,
            "max" : [
                1.3724275827407837,
                1.5859358310699463,
                1.6027361154556274
            ],
            "min" : [
                -1.5712677240371704,
                -1.5692201852798462,
                -1.5906727313995361
            ],
            "type" : "VEC3"
        },
        {
            "bufferView" : 4,
            "componentType" : 5126,
            "count" : 24587,
            "type" : "VEC3"
        },
        {
            "bufferView" : 5,
            "componentType" : 5123,
            "count" : 147456,
            "type" : "SCALAR"
        },
        {
            "bufferView" : 6,
            "componentType" : 5126,
            "count" : 24578,
            "max" : [
                1.4851101636886597,
                1.4851065874099731,
                1.4851068258285522
            ],
            "min" : [
                -1.4851099252700806,
                -1.4851067066192627,
                -1.485106348991394
            ],
            "type" : "VEC3"
        },
        {
            "bufferView" : 7,
            "componentType" : 5126,
            "count" : 24578,
            "type" : "VEC3"
        },
        {
            "bufferView" : 8,
            "componentType" : 5123,
            "count" : 147456,
            "type" : "SCALAR"
        }
    ],
    "bufferViews" : [
        {
            "buffer" : 0,
            "byteLength" : 103428,
            "byteOffset" : 0
        },
        {
            "buffer" : 0,
            "byteLength" : 103428,
            "byteOffset" : 103428
        },
        {
            "buffer" : 0,
            "byteLength" : 96168,
            "byteOffset" : 206856
        },
        {
            "buffer" : 0,
            "byteLength" : 295044,
            "byteOffset" : 303024
        },
        {
            "buffer" : 0,
            "byteLength" : 295044,
            "byteOffset" : 598068
        },
        {
            "buffer" : 0,
            "byteLength" : 294912,
            "byteOffset" : 893112
        },
        {
            "buffer" : 0,
            "byteLength" : 294936,
            "byteOffset" : 1188024
        },
        {
            "buffer" : 0,
            "byteLength" : 294936,
            "byteOffset" : 1482960
        },
        {
            "buffer" : 0,
            "byteLength" : 294912,
            "byteOffset" : 1777896
        }
    ],
    "buffers" : [
        {
            "byteLength" : 2072808,
            "uri" : "newplanet.bin"
        }
    ]
}
