{
    "asset" : {
        "generator" : "Khronos glTF Blender I/O v0.9.36",
        "version" : "2.0"
    },
    "scene" : 0,
    "scenes" : [
        {
            "name" : "Scene",
            "nodes" : [
                0,
                1
            ]
        }
    ],
    "nodes" : [
        {
            "mesh" : 0,
            "name" : "surface"
        },
        {
            "mesh" : 1,
            "name" : "water"
        }
    ],
    "meshes" : [
        {
            "name" : "surface",
            "primitives" : [
                {
                    "attributes" : {
                        "POSITION" : 0,
                        "NORMAL" : 1
                    },
                    "indices" : 2
                }
            ]
        },
        {
            "name" : "water",
            "primitives" : [
                {
                    "attributes" : {
                        "POSITION" : 3,
                        "NORMAL" : 4
                    },
                    "indices" : 5
                }
            ]
        }
    ],
    "accessors" : [
        {
            "bufferView" : 0,
            "componentType" : 5126,
            "count" : 24578,
            "max" : [
                1.3724275827407837,
                1.5906727313995361,
                1.5859358310699463
            ],
            "min" : [
                -1.5712677240371704,
                -1.6027361154556274,
                -1.5692201852798462
            ],
            "type" : "VEC3"
        },
        {
            "bufferView" : 1,
            "componentType" : 5126,
            "count" : 24578,
            "type" : "VEC3"
        },
        {
            "bufferView" : 2,
            "componentType" : 5123,
            "count" : 147456,
            "type" : "SCALAR"
        },
        {
            "bufferView" : 3,
            "componentType" : 5126,
            "count" : 24578,
            "max" : [
                1.4851101636886597,
                1.485106348991394,
                1.4851065874099731
            ],
            "min" : [
                -1.4851099252700806,
                -1.4851068258285522,
                -1.4851067066192627
            ],
            "type" : "VEC3"
        },
        {
            "bufferView" : 4,
            "componentType" : 5126,
            "count" : 24578,
            "type" : "VEC3"
        },
        {
            "bufferView" : 5,
            "componentType" : 5123,
            "count" : 147456,
            "type" : "SCALAR"
        }
    ],
    "bufferViews" : [
        {
            "buffer" : 0,
            "byteLength" : 294936,
            "byteOffset" : 0
        },
        {
            "buffer" : 0,
            "byteLength" : 294936,
            "byteOffset" : 294936
        },
        {
            "buffer" : 0,
            "byteLength" : 294912,
            "byteOffset" : 589872
        },
        {
            "buffer" : 0,
            "byteLength" : 294936,
            "byteOffset" : 884784
        },
        {
            "buffer" : 0,
            "byteLength" : 294936,
            "byteOffset" : 1179720
        },
        {
            "buffer" : 0,
            "byteLength" : 294912,
            "byteOffset" : 1474656
        }
    ],
    "buffers" : [
        {
            "byteLength" : 1769568,
            "uri" : "planet.bin"
        }
    ]
}
